<?xml version="1.0" encoding="UTF-8" standalone="no"?>
<svg
   xmlns:dc="http://purl.org/dc/elements/1.1/"
   xmlns:cc="http://creativecommons.org/ns#"
   xmlns:rdf="http://www.w3.org/1999/02/22-rdf-syntax-ns#"
   xmlns:svg="http://www.w3.org/2000/svg"
   xmlns="http://www.w3.org/2000/svg"
   xmlns:sodipodi="http://sodipodi.sourceforge.net/DTD/sodipodi-0.dtd"
   xmlns:inkscape="http://www.inkscape.org/namespaces/inkscape"
   width="64"
   height="64"
   version="1.1"
   id="svg14"
   sodipodi:docname="com.github.Paraworker.Sniffer.svg"
   inkscape:version="1.0 (4035a4fb49, 2020-05-01)">
  <metadata
     id="metadata20">
    <rdf:RDF>
      <cc:Work
         rdf:about="">
        <dc:format>image/svg+xml</dc:format>
        <dc:type
           rdf:resource="http://purl.org/dc/dcmitype/StillImage" />
      </cc:Work>
    </rdf:RDF>
  </metadata>
  <defs
     id="defs18" />
  <sodipodi:namedview
     inkscape:document-rotation="0"
     pagecolor="#ffffff"
     bordercolor="#666666"
     borderopacity="1"
     objecttolerance="10"
     gridtolerance="10"
     guidetolerance="10"
     inkscape:pageopacity="0"
     inkscape:pageshadow="2"
     inkscape:window-width="1920"
     inkscape:window-height="1016"
     id="namedview16"
     showgrid="false"
     inkscape:zoom="12.171875"
     inkscape:cx="31.927199"
     inkscape:cy="30.43184"
     inkscape:window-x="0"
     inkscape:window-y="27"
     inkscape:window-maximized="1"
     inkscape:current-layer="svg14" />
  <rect
     style="opacity:0.2;stroke-width:1.09219"
     width="47.950371"
     height="47.950371"
     x="-60.892143"
     y="-50.061363"
     rx="3.5965781"
     ry="3.5965781"
     transform="matrix(-0.16377962,-0.98649695,-0.98649695,0.16377962,0,0)"
     id="rect2" />
  <rect
     style="fill:#4f4f4f;stroke-width:1.13629"
     width="49.886688"
     height="49.886688"
     x="-61.990799"
     y="-50.977581"
     rx="3.7418141"
     ry="3.7418141"
     transform="matrix(-0.16377962,-0.98649695,-0.98649695,0.16377962,0,0)"
     id="rect4" />
  <path
     style="opacity:0.1;fill:#ffffff;stroke-width:1.09219"
     d="M 49.674814,4.1502516 C 49.220357,4.0417164 48.737303,4.0192834 48.24594,4.1008598 L 8.0373005,10.775808 C 6.4258092,11.04335 5.2654164,12.336387 5.0734958,13.875125 5.5541735,12.829113 6.528619,12.034325 7.7546213,11.830783 L 47.963261,5.1558333 c 1.965446,-0.3263056 3.810054,0.9935562 4.136359,2.9590001 l 6.67495,40.2086386 c 0.05876,0.353952 0.04695,0.69907 0.0048,1.037043 0.289912,-0.630884 0.400637,-1.352575 0.277874,-2.092016 L 52.3823,7.0598599 C 52.13757,5.5857769 51.038181,4.4758575 49.674814,4.1502516 Z"
     id="path6" />
  <path
     d="m 19.215043,19.521429 a 2.0694969,2.0694969 0 0 0 -1.664555,1.725002 L 15.464941,35.01188 6.7421354,36.714594 a 2.0694969,2.0694969 0 1 0 0.7928978,4.061917 L 17.68982,38.794269 a 2.0694969,2.0694969 0 0 0 1.64869,-1.721904 l 1.310586,-8.664504 9.350155,19.072975 a 2.0694969,2.0694969 0 0 0 3.913555,-0.677471 l 1.6388,-14.429752 3.102711,5.157293 a 2.0694969,2.0694969 0 0 0 3.488734,0.08902 L 44.93321,33.47627 60.339929,30.468834 A 2.0694969,2.0694969 0 1 0 59.54703,26.406928 l -16.24766,3.171586 a 2.0694969,2.0694969 0 0 0 -1.319803,0.875312 l -1.454136,2.159539 -4.568528,-7.593074 a 2.0694969,2.0694969 0 0 0 -3.827487,0.833601 L 30.602147,39.304493 21.454182,20.645012 a 2.0694969,2.0694969 0 0 0 -2.239139,-1.123583 z"
     style="opacity:0.2;stroke-width:1.03464"
     id="path6-3" />
  <path
     d="m 6.9403593,37.730074 10.1547877,-1.982243 2.302254,-15.207825 12.26218,25.014879 2.326612,-20.483444 6.242384,10.377374 3.269019,-4.854812 16.24766,-3.171588"
     style="fill:none;stroke:#ffbe23;stroke-width:4.13858;stroke-linecap:round;stroke-linejoin:round"
     id="path8" />
</svg>
